{
  "asset": {
    "generator": "MaterialX 1.39 to glTF 2.0 generator. https://github.com/kwokcb/materialxgltf",
    "version": "2.0",
    "copyright": "Copyright 2022-2025: Bernard Kwok."
  },
  "scene": 0,
  "scenes": [
    {
      "name": "Scene",
      "nodes": [
        0
      ]
    }
  ],
  "nodes": [
    {
      "mesh": 0,
      "name": "Sphere"
    }
  ],
  "animations": [
    {
      "channels": [
        {
          "sampler": 0,
          "target": {
            "node": 0,
            "path": "translation"
          }
        },
        {
          "sampler": 1,
          "target": {
            "node": 0,
            "path": "rotation"
          }
        },
        {
          "sampler": 2,
          "target": {
            "node": 0,
            "path": "scale"
          }
        }
      ],
      "name": "SphereAction",
      "samplers": [
        {
          "input": 5,
          "interpolation": "STEP",
          "output": 6
        },
        {
          "input": 5,
          "interpolation": "STEP",
          "output": 7
        },
        {
          "input": 5,
          "interpolation": "STEP",
          "output": 8
        }
      ]
    }
  ],
  "materials": [
    {
      "extensions": {
        "KHR_materials_clearcoat": {
          "clearcoatTexture": {
            "index": 2
          },
          "clearcoatRoughnessTexture": {
            "index": 3
          }
        }
      },
      "name": "SR_brass1",
      "pbrMetallicRoughness": {
        "baseColorTexture": {
          "index": 0
        },
        "roughnessFactor": 1.0,
        "metallicRoughnessTexture": {
          "index": 1
        }
      }
    }
  ],
  "meshes": [
    {
      "name": "Sphere",
      "primitives": [
        {
          "attributes": {
            "POSITION": 0,
            "TEXCOORD_0": 1,
            "NORMAL": 2,
            "TANGENT": 3
          },
          "indices": 4,
          "material": 0
        }
      ]
    }
  ],
  "accessors": [
    {
      "bufferView": 0,
      "componentType": 5126,
      "count": 559,
      "max": [
        0.9999997019767761,
        1,
        0.9999993443489075
      ],
      "min": [
        -0.9999990463256836,
        -1,
        -1
      ],
      "type": "VEC3"
    },
    {
      "bufferView": 1,
      "componentType": 5126,
      "count": 559,
      "type": "VEC2"
    },
    {
      "bufferView": 2,
      "componentType": 5126,
      "count": 559,
      "type": "VEC3"
    },
    {
      "bufferView": 3,
      "componentType": 5126,
      "count": 559,
      "type": "VEC4"
    },
    {
      "bufferView": 4,
      "componentType": 5123,
      "count": 2880,
      "type": "SCALAR"
    },
    {
      "bufferView": 5,
      "componentType": 5126,
      "count": 1,
      "max": [
        0.041666666666666664
      ],
      "min": [
        0.041666666666666664
      ],
      "type": "SCALAR"
    },
    {
      "bufferView": 6,
      "componentType": 5126,
      "count": 1,
      "type": "VEC3"
    },
    {
      "bufferView": 7,
      "componentType": 5126,
      "count": 1,
      "type": "VEC4"
    },
    {
      "bufferView": 8,
      "componentType": 5126,
      "count": 1,
      "type": "VEC3"
    }
  ],
  "bufferViews": [
    {
      "buffer": 0,
      "byteLength": 6708,
      "byteOffset": 0,
      "target": 34962
    },
    {
      "buffer": 0,
      "byteLength": 4472,
      "byteOffset": 6708,
      "target": 34962
    },
    {
      "buffer": 0,
      "byteLength": 6708,
      "byteOffset": 11180,
      "target": 34962
    },
    {
      "buffer": 0,
      "byteLength": 8944,
      "byteOffset": 17888,
      "target": 34962
    },
    {
      "buffer": 0,
      "byteLength": 5760,
      "byteOffset": 26832,
      "target": 34963
    },
    {
      "buffer": 0,
      "byteLength": 4,
      "byteOffset": 32592
    },
    {
      "buffer": 0,
      "byteLength": 12,
      "byteOffset": 32596
    },
    {
      "buffer": 0,
      "byteLength": 16,
      "byteOffset": 32608
    },
    {
      "buffer": 0,
      "byteLength": 12,
      "byteOffset": 32624
    }
  ],
  "buffers": [
    {
      "byteLength": 32636,
      "uri": "test_sphere.bin"
    }
  ],
  "textures": [
    {
      "name": "NG_baked/base_color",
      "source": 0,
      "sampler": 0
    },
    {
      "name": "NG_baked/roughness",
      "source": 1,
      "sampler": 0
    },
    {
      "name": "NG_baked/clearcoat",
      "source": 2,
      "sampler": 0
    },
    {
      "name": "NG_baked/clearcoat_roughness",
      "source": 3,
      "sampler": 0
    }
  ],
  "images": [
    {
      "name": "NG_baked/base_color",
      "uri": "Tiled_Brass_gltf_pbr_base_color.png"
    },
    {
      "name": "NG_baked/roughness",
      "uri": "Tiled_Brass_gltf_pbr_roughness_combined.png"
    },
    {
      "name": "NG_baked/clearcoat",
      "uri": "Tiled_Brass_gltf_pbr_clearcoat.png"
    },
    {
      "name": "NG_baked/clearcoat_roughness",
      "uri": "Tiled_Brass_gltf_pbr_clearcoat_roughness.png"
    }
  ],
  "samplers": [
    {
      "wrapS": 10497,
      "wrapT": 10497,
      "magFilter": 9729,
      "minFilter": 9986
    }
  ],
  "extensionsUsed": [
    "KHR_materials_clearcoat"
  ]
}