{
  "asset": {
    "version": "2.0",
    "generator": "MaterialX 1.39 to glTF 2.0 generator. https://github.com/kwokcb/materialxgltf",
    "copyright": "Copyright 2022-2026: Bernard Kwok."
  },
  "extensionsUsed": [
    "KHR_materials_anisotropy",
    "KHR_materials_clearcoat",
    "KHR_materials_emissive_strength",
    "KHR_materials_transmission",
    "KHR_materials_volume"
  ],
  "scene": 0,
  "scenes": [
    {
      "nodes": [
        0,
        1,
        2
      ]
    }
  ],
  "nodes": [
    {
      "mesh": 0,
      "name": "Lamp Metal"
    },
    {
      "mesh": 1,
      "name": "Lamp Filament"
    },
    {
      "mesh": 2,
      "name": "Lamp Glass"
    }
  ],
  "meshes": [
    {
      "primitives": [
        {
          "attributes": {
            "POSITION": 1,
            "TANGENT": 2,
            "NORMAL": 3,
            "TEXCOORD_0": 4
          },
          "indices": 0,
          "material": 0
        }
      ],
      "name": "Lamp Metal"
    },
    {
      "primitives": [
        {
          "attributes": {
            "POSITION": 6,
            "NORMAL": 7
          },
          "indices": 5,
          "material": 1
        }
      ],
      "name": "Lamp Filament"
    },
    {
      "primitives": [
        {
          "attributes": {
            "POSITION": 9,
            "NORMAL": 10
          },
          "indices": 8,
          "material": 2
        }
      ],
      "name": "Lamp Glass"
    }
  ],
  "accessors": [
    {
      "bufferView": 0,
      "componentType": 5123,
      "count": 25257,
      "type": "SCALAR",
      "name": "accessorIndices"
    },
    {
      "bufferView": 1,
      "componentType": 5126,
      "count": 6803,
      "max": [
        0.08619007,
        0.056946706,
        0.226538792
      ],
      "min": [
        -0.104619145,
        -0.172301471,
        -2.43595832e-06
      ],
      "type": "VEC3",
      "name": "accessorPositions"
    },
    {
      "bufferView": 2,
      "componentType": 5126,
      "count": 6803,
      "type": "VEC4",
      "name": "accessorTangents"
    },
    {
      "bufferView": 1,
      "byteOffset": 81636,
      "componentType": 5126,
      "count": 6803,
      "type": "VEC3",
      "name": "accessorNormals"
    },
    {
      "bufferView": 3,
      "componentType": 5126,
      "count": 6803,
      "type": "VEC2",
      "name": "accessorUVs"
    },
    {
      "bufferView": 0,
      "byteOffset": 50516,
      "componentType": 5123,
      "count": 840,
      "type": "SCALAR",
      "name": "accessorIndices"
    },
    {
      "bufferView": 1,
      "byteOffset": 163272,
      "componentType": 5126,
      "count": 140,
      "max": [
        8.701398e-05,
        -0.12128906,
        0.142439723
      ],
      "min": [
        -0.0193775147,
        -0.170719177,
        0.122564256
      ],
      "type": "VEC3",
      "name": "accessorPositions"
    },
    {
      "bufferView": 1,
      "byteOffset": 164952,
      "componentType": 5126,
      "count": 140,
      "type": "VEC3",
      "name": "accessorNormals"
    },
    {
      "bufferView": 0,
      "byteOffset": 52196,
      "componentType": 5123,
      "count": 4512,
      "type": "SCALAR",
      "name": "accessorIndices"
    },
    {
      "bufferView": 1,
      "byteOffset": 166632,
      "componentType": 5126,
      "count": 769,
      "max": [
        0.01725974,
        -0.0980222151,
        0.15841879
      ],
      "min": [
        -0.03568878,
        -0.198292032,
        0.106095724
      ],
      "type": "VEC3",
      "name": "accessorPositions"
    },
    {
      "bufferView": 1,
      "byteOffset": 175860,
      "componentType": 5126,
      "count": 769,
      "type": "VEC3",
      "name": "accessorNormals"
    }
  ],
  "bufferViews": [
    {
      "buffer": 0,
      "byteLength": 61220,
      "name": "bufferViewScalar",
      "target": 34963
    },
    {
      "buffer": 0,
      "byteOffset": 61220,
      "byteLength": 185088,
      "byteStride": 12,
      "name": "bufferViewFloatVec3",
      "target": 34962
    },
    {
      "buffer": 0,
      "byteOffset": 246308,
      "byteLength": 108848,
      "byteStride": 16,
      "name": "bufferViewFloatVec4",
      "target": 34962
    },
    {
      "buffer": 0,
      "byteOffset": 355156,
      "byteLength": 54424,
      "byteStride": 8,
      "name": "bufferViewFloatVec2",
      "target": 34962
    }
  ],
  "buffers": [
    {
      "uri": "AnisotropyBarnLamp.bin",
      "byteLength": 409580
    }
  ],
  "materials": [
    {
      "extensions": {
        "KHR_materials_clearcoat": {
          "clearcoatFactor": 0.25,
          "clearcoatRoughnessFactor": 0.15000000596046448
        },
        "KHR_materials_anisotropy": {
          "anisotropyTexture": {
            "index": 8
          },
          "anisotropyStrength": 1.0
        }
      },
      "name": "Lamp_Metal",
      "pbrMetallicRoughness": {
        "baseColorTexture": {
          "index": 4
        },
        "metallicRoughnessTexture": {
          "index": 5
        }
      },
      "normalTexture": {
        "index": 6
      }
    },
    {
      "extensions": {
        "KHR_materials_emissive_strength": {
          "emissiveStrength": 25.0
        }
      },
      "name": "Lamp_Filament",
      "pbrMetallicRoughness": {
        "baseColorFactor": [
          0.09000000357627869,
          0.09000000357627869,
          0.09000000357627869,
          1.0
        ],
        "metallicFactor": 0.0,
        "roughnessFactor": 0.699999988079071
      },
      "emissiveFactor": [
        1.0,
        0.5,
        0.25
      ]
    },
    {
      "extensions": {
        "KHR_materials_transmission": {
          "transmissionFactor": 1.0
        },
        "KHR_materials_volume": {
          "thicknessFactor": 0.009999999776482582
        }
      },
      "name": "Lamp_Glass",
      "pbrMetallicRoughness": {
        "baseColorFactor": [
          1.0,
          1.0,
          1.0,
          1.0
        ],
        "metallicFactor": 0.0,
        "roughnessFactor": 0.0
      }
    }
  ],
  "textures": [
    {
      "sampler": 0,
      "source": 0,
      "name": "AnisotropyBarnLamp_normalbump.png"
    },
    {
      "sampler": 0,
      "source": 1,
      "name": "AnisotropyBarnLamp_occlusionroughnessmetal.png"
    },
    {
      "sampler": 0,
      "source": 2,
      "name": "AnisotropyBarnLamp_basecolor.png"
    },
    {
      "sampler": 0,
      "source": 3,
      "name": "AnisotropyBarnLamp_anisotropy.png"
    },
    {
      "name": "image_base_color",
      "source": 4,
      "sampler": 1
    },
    {
      "name": "image_orm",
      "source": 5,
      "sampler": 2
    },
    {
      "name": "image_normal",
      "source": 6,
      "sampler": 2
    },
    {
      "name": "image_clearcoat_normal",
      "source": 7,
      "sampler": 2
    },
    {
      "name": "image_anisotropy_strength",
      "source": 8,
      "sampler": 2
    }
  ],
  "images": [
    {
      "uri": "AnisotropyBarnLamp_normalbump.png"
    },
    {
      "uri": "AnisotropyBarnLamp_occlusionroughnessmetal.png"
    },
    {
      "uri": "AnisotropyBarnLamp_basecolor.png"
    },
    {
      "uri": "AnisotropyBarnLamp_anisotropy.png"
    },
    {
      "name": "image_base_color",
      "uri": "AnisotropyBarnLamp_basecolor.png"
    },
    {
      "name": "image_orm",
      "uri": "AnisotropyBarnLamp_occlusionroughnessmetal.png"
    },
    {
      "name": "image_normal",
      "uri": "AnisotropyBarnLamp_normalbump.png"
    },
    {
      "name": "image_clearcoat_normal",
      "uri": "AnisotropyBarnLamp_normalbump.png"
    },
    {
      "name": "image_anisotropy_strength",
      "uri": "AnisotropyBarnLamp_anisotropy.png"
    }
  ],
  "samplers": [
    {
      "magFilter": 9729,
      "minFilter": 9987
    },
    {
      "wrapS": 10497,
      "wrapT": 10497,
      "magFilter": 9729,
      "minFilter": 9986
    },
    {
      "wrapS": 10497,
      "wrapT": 10497,
      "magFilter": 9729,
      "minFilter": 9729
    }
  ]
}